<?xml version="1.0" standalone="no"?>
<!DOCTYPE svg PUBLIC "-//W3C//DTD SVG 20010904//EN"
 "http://www.w3.org/TR/2001/REC-SVG-20010904/DTD/svg10.dtd">
<svg version="1.0" xmlns="http://www.w3.org/2000/svg"
 width="598.000000pt" height="700.000000pt" viewBox="0 0 598.000000 700.000000"
 preserveAspectRatio="xMidYMid meet">

<g transform="translate(0.000000,700.000000) scale(0.100000,-0.100000)"
fill="#000000" stroke="none">
<path d="M2735 6679 c-325 -18 -693 -80 -1150 -195 -143 -36 -767 -213 -773
-219 -7 -7 -54 -174 -107 -381 -127 -497 -213 -1009 -262 -1559 -22 -253 -26
-1126 -5 -1380 40 -487 108 -945 208 -1391 40 -181 127 -524 155 -610 9 -29
21 -36 162 -92 838 -333 1672 -444 2568 -342 449 51 949 168 1394 325 88 31
174 61 192 67 l32 11 46 191 c121 500 191 888 244 1346 145 1252 59 2457 -265
3716 l-26 101 -312 87 c-803 222 -1201 300 -1674 326 -195 11 -223 11 -427 -1z
m617 -94 c283 -29 604 -88 963 -176 182 -45 749 -201 758 -209 12 -11 52 -161
107 -405 237 -1059 302 -2111 194 -3190 -20 -209 -68 -549 -109 -781 -69 -389
-173 -830 -199 -850 -24 -17 -422 -148 -601 -198 -1223 -337 -2393 -285 -3473
152 l-115 47 -13 45 c-34 111 -138 540 -173 714 -124 603 -179 1110 -188 1731
-10 699 42 1272 177 1945 48 237 180 770 196 789 7 8 533 155 754 211 366 93
690 152 975 179 158 15 582 12 747 -4z"/>
<path d="M3608 6180 c-101 -13 -280 -48 -408 -80 -143 -37 -391 -108 -398
-114 -2 -3 -24 -81 -47 -173 -159 -622 -184 -1231 -79 -1858 24 -146 61 -318
89 -420 8 -27 19 -69 25 -91 l10 -42 133 -50 c495 -188 1019 -213 1559 -72
109 28 375 113 385 123 7 7 69 279 92 402 97 524 106 1098 26 1635 -26 172
-103 532 -118 546 -18 18 -521 145 -692 175 -134 23 -458 34 -577 19z m557
-99 c215 -38 618 -141 642 -164 14 -15 65 -238 97 -432 48 -286 60 -437 60
-775 1 -400 -21 -624 -99 -1005 -55 -268 -34 -235 -183 -283 -533 -173 -989
-197 -1459 -77 -146 38 -343 108 -355 128 -10 16 -72 275 -98 412 -99 519 -99
1112 0 1630 31 159 89 388 103 402 14 14 288 93 445 128 95 21 238 46 342 59
87 11 389 -3 505 -23z"/>
<path d="M3740 6043 c-87 -5 -256 -32 -370 -59 -169 -40 -414 -115 -427 -131
-13 -17 -89 -321 -81 -328 2 -2 28 8 58 23 42 21 73 28 132 31 69 3 84 0 140
-27 76 -35 139 -97 176 -172 24 -50 27 -66 27 -165 0 -100 -2 -115 -28 -167
-60 -123 -159 -190 -287 -196 -99 -5 -166 20 -244 90 l-58 52 5 -340 c4 -268
9 -372 26 -494 21 -154 70 -410 96 -505 8 -27 19 -69 25 -92 10 -40 13 -42 98
-78 251 -105 515 -156 807 -156 289 0 520 45 787 151 l104 41 38 156 c21 85
35 157 33 160 -3 2 -29 -6 -59 -19 -80 -35 -193 -33 -269 5 -117 57 -190 173
-197 313 -11 213 135 387 328 388 87 1 155 -24 221 -81 l54 -46 6 69 c9 95 10
345 3 426 l-7 66 -52 -43 c-71 -58 -138 -79 -229 -73 -124 8 -226 81 -283 203
-25 54 -28 71 -28 165 0 96 3 110 29 162 36 72 101 139 164 170 39 19 63 23
142 23 79 0 102 -4 137 -23 49 -25 54 -26 49 -9 -2 6 -21 83 -42 169 l-37 158
-116 36 c-349 110 -656 162 -871 147z m-200 -1893 c0 -327 -1 -350 -17 -349
-62 2 -159 69 -207 141 -94 141 -81 334 30 457 46 51 130 101 171 101 l23 0 0
-350z"/>
<path d="M1493 5920 c-143 -21 -227 -115 -209 -232 14 -90 87 -146 252 -191
106 -29 130 -40 145 -68 15 -28 -4 -73 -37 -88 -69 -31 -155 5 -172 72 -9 35
2 33 -142 29 -69 -2 -70 -2 -70 -29 0 -39 42 -123 76 -155 45 -42 100 -60 204
-65 118 -7 195 8 257 50 87 59 125 174 88 265 -38 89 -90 117 -342 182 -54 13
-71 41 -48 76 13 20 24 24 64 24 56 0 95 -25 105 -66 6 -23 11 -26 38 -20 17
3 61 6 99 6 67 0 69 1 69 25 0 38 -39 113 -71 135 -62 45 -198 67 -306 50z"/>
<path d="M1170 4535 l0 -355 90 0 90 0 2 262 3 261 66 -259 66 -259 81 -3 81
-3 10 38 c6 21 37 139 69 263 l57 225 3 -262 2 -263 90 0 90 0 0 355 0 355
-145 0 -144 0 -10 -37 c-6 -21 -29 -113 -52 -205 -23 -93 -44 -168 -48 -168
-4 0 -26 75 -50 168 -23 92 -47 184 -52 205 l-10 37 -144 0 -145 0 0 -355z"/>
<path d="M1270 3515 l0 -355 110 0 110 0 0 86 0 85 52 60 c29 32 55 59 58 59
3 0 39 -65 80 -145 l75 -145 133 0 c72 0 132 2 132 4 0 3 -60 103 -134 223
l-134 218 107 110 c59 61 115 120 125 133 l19 22 -144 0 -144 0 -110 -130
-110 -130 -3 130 -3 130 -109 0 -110 0 0 -355z"/>
<path d="M1785 2586 c-68 -46 -165 -143 -259 -256 -43 -52 -82 -99 -87 -104
-4 -5 -21 3 -39 18 -45 37 -93 36 -131 -5 -25 -26 -29 -39 -29 -85 0 -34 8
-69 21 -98 l22 -44 -39 -46 c-47 -57 -132 -115 -177 -123 -26 -4 -40 0 -61 19
-35 30 -27 52 29 77 53 23 65 53 38 90 -39 51 -103 32 -124 -38 -15 -50 -5
-103 26 -138 19 -24 31 -28 72 -28 65 1 108 24 186 102 l67 65 36 -32 c20 -17
51 -39 69 -47 30 -14 32 -19 24 -40 -5 -13 -9 -26 -9 -28 0 -3 21 -2 48 2 80
10 171 58 230 121 l54 57 -43 -80 c-23 -44 -47 -86 -53 -94 -9 -12 0 -13 59
-9 50 5 73 11 80 23 97 161 185 275 241 312 43 27 39 6 -14 -74 -77 -118 -89
-166 -55 -224 25 -42 56 -47 97 -16 31 24 48 41 109 108 l23 26 -4 -59 c-5
-65 13 -98 53 -98 25 0 95 48 118 80 15 21 15 21 27 -14 30 -91 130 -84 195
12 l25 37 0 -35 c0 -49 24 -80 61 -80 33 0 103 63 209 189 83 98 96 111 111
111 7 0 -1 -14 -18 -32 -44 -46 -75 -112 -81 -167 -3 -40 0 -52 20 -76 36 -42
68 -29 155 60 49 51 69 67 63 49 -31 -81 18 -156 82 -124 12 7 49 38 81 69
l59 56 -7 -33 c-14 -67 29 -115 86 -97 12 4 46 31 76 60 55 54 60 48 21 -29
l-20 -39 47 5 c26 3 51 10 56 15 10 10 307 686 303 691 -1 2 -22 0 -47 -3
l-45 -7 -82 -176 c-54 -117 -98 -196 -132 -239 -54 -68 -58 -96 -7 -47 l32 29
-14 -27 c-8 -14 -45 -63 -84 -108 -67 -78 -101 -108 -112 -97 -5 5 43 121 111
270 l36 79 -52 -7 c-29 -4 -56 -10 -59 -14 -45 -46 -119 -144 -114 -149 4 -4
18 6 31 21 28 33 31 24 6 -18 -29 -47 -169 -191 -178 -182 -15 14 17 101 104
284 l87 183 43 0 c31 0 42 4 42 15 0 10 -10 15 -30 15 -16 0 -30 2 -30 4 0 2
16 37 35 77 19 40 33 74 31 76 -2 2 -26 1 -53 -2 l-48 -7 -82 -161 c-53 -104
-103 -187 -139 -230 -31 -37 -53 -71 -49 -75 4 -4 20 9 37 28 29 34 30 34 15
5 -8 -17 -32 -50 -53 -75 -140 -163 -171 -172 -89 -28 30 54 57 109 61 123 8
34 -18 63 -65 71 -64 11 -71 14 -71 41 0 38 -23 23 -35 -23 -6 -23 -29 -61
-52 -88 -24 -27 -40 -53 -36 -59 3 -6 27 13 54 44 26 30 50 51 54 47 7 -7 -44
-68 -172 -207 -28 -30 -55 -52 -59 -48 -4 4 22 82 59 173 l66 166 -37 -6 c-20
-3 -42 -6 -49 -6 -7 0 -19 -12 -27 -27 -10 -19 -15 -23 -16 -11 0 22 -38 48
-70 48 -82 0 -214 -116 -240 -211 -13 -46 -107 -146 -122 -131 -15 15 14 91
112 295 l79 166 42 3 c53 4 66 28 15 28 l-35 0 35 76 c19 42 33 78 31 80 -2 2
-25 1 -51 -2 l-47 -7 -66 -131 c-77 -155 -118 -220 -175 -281 -46 -51 -44 -75
2 -30 17 16 30 23 30 17 0 -23 -176 -212 -197 -212 -19 0 -16 13 12 54 33 49
70 124 79 159 10 43 -11 106 -40 119 -37 17 -85 -12 -151 -90 l-53 -62 5 52
c6 58 -9 101 -37 106 -19 4 -138 -114 -138 -137 0 -10 12 -3 35 19 65 63 47
21 -29 -67 -129 -148 -169 -161 -125 -40 53 144 140 358 191 472 82 180 82
182 -7 121z m3 -38 c-33 -51 -156 -271 -223 -401 l-72 -138 -6 54 c-4 30 -14
71 -22 92 -19 44 -19 44 84 170 84 104 156 180 205 216 47 35 53 36 34 7z
m-384 -341 c16 -12 13 -19 -40 -87 -31 -41 -59 -77 -61 -80 -9 -9 -23 26 -23
58 0 40 22 85 52 106 27 19 48 20 72 3z m1269 -38 c24 -33 -4 -100 -90 -221
-33 -45 -87 -88 -112 -88 -39 0 30 165 115 273 48 62 65 69 87 36z m-1213
-120 c0 -37 -3 -80 -6 -97 -6 -28 -8 -29 -33 -21 -14 5 -45 26 -69 47 l-42 37
62 79 62 79 13 -29 c6 -16 12 -59 13 -95z"/>
<path d="M3530 2375 c-20 -21 -22 -30 -14 -53 13 -36 56 -42 78 -10 45 64 -11
119 -64 63z"/>
<path d="M4762 2369 c-80 -40 -144 -147 -122 -205 18 -48 90 -18 133 54 28 49
3 46 -31 -3 -23 -33 -38 -45 -57 -45 -31 0 -33 25 -6 79 50 97 171 148 194 81
24 -67 -38 -168 -172 -284 -118 -103 -130 -115 -146 -163 -15 -43 -10 -57 10
-28 39 56 54 58 122 15 26 -17 61 -30 78 -30 51 0 155 86 155 129 0 11 -12 4
-34 -21 -19 -21 -41 -36 -48 -33 -7 3 -35 16 -62 30 -27 14 -66 25 -85 25
l-36 0 25 20 c14 11 65 40 113 66 149 77 193 129 184 217 -6 70 -46 109 -119
114 -40 3 -63 -1 -96 -18z"/>
<path d="M3863 2205 c-12 -8 -32 -35 -44 -59 -20 -41 -37 -56 -81 -70 -32 -10
-21 -29 13 -22 36 7 36 5 -1 -97 -18 -50 -19 -62 -8 -85 21 -44 56 -40 114 12
l50 44 11 -28 c15 -41 55 -64 97 -56 25 5 48 22 80 57 l46 51 0 -39 c0 -26 6
-46 18 -56 45 -41 100 -8 211 129 13 16 55 64 93 107 38 42 64 77 57 77 -13 0
-83 -70 -164 -166 -78 -92 -113 -126 -124 -123 -6 2 19 78 55 168 35 90 63
165 61 167 -2 2 -25 1 -50 -2 -33 -5 -48 -12 -53 -26 -5 -17 -7 -17 -36 7 -16
14 -40 25 -52 25 -74 0 -216 -123 -238 -206 -7 -26 -26 -57 -45 -76 l-33 -32
6 61 c6 56 5 63 -18 86 l-25 25 33 53 c31 51 32 52 36 24 4 -35 31 -54 56 -39
25 16 27 59 3 83 -25 25 -39 26 -68 6z m335 -27 c20 -20 13 -57 -25 -130 -58
-112 -166 -214 -187 -179 -11 17 21 99 70 181 75 126 111 159 142 128z"/>
<path d="M1399 1607 c-82 -54 -93 -185 -22 -249 10 -9 52 -30 92 -45 41 -16
79 -35 84 -44 31 -49 -54 -71 -91 -24 -17 22 -28 25 -82 25 l-62 0 7 -32 c19
-89 82 -138 180 -138 119 0 185 60 185 168 0 90 -28 124 -130 157 -71 23 -100
41 -100 64 0 35 62 43 82 11 11 -17 24 -20 75 -20 73 0 78 9 40 74 -31 54 -76
76 -158 76 -52 0 -73 -5 -100 -23z"/>
<path d="M2527 1607 c-78 -47 -112 -135 -105 -270 5 -90 26 -143 75 -189 82
-78 238 -62 300 31 94 139 55 375 -71 435 -52 25 -152 21 -199 -7z m136 -108
c36 -16 47 -50 47 -137 0 -85 -13 -116 -56 -132 -36 -14 -73 4 -89 45 -30 71
-12 198 32 224 23 13 37 14 66 0z"/>
<path d="M4265 1614 c-85 -44 -119 -113 -120 -244 0 -176 72 -270 209 -270 91
0 145 33 189 115 19 34 22 56 22 150 0 94 -3 116 -22 150 -26 48 -68 90 -106
104 -42 16 -137 13 -172 -5z m132 -119 c40 -28 55 -140 30 -215 -22 -65 -95
-74 -132 -16 -21 31 -24 149 -6 193 20 48 69 65 108 38z"/>
<path d="M1760 1365 l0 -255 65 0 65 0 0 255 0 255 -65 0 -65 0 0 -255z"/>
<path d="M1980 1365 l0 -255 108 0 c129 0 171 11 213 53 43 43 60 88 66 177 9
130 -35 234 -114 266 -21 9 -74 14 -153 14 l-120 0 0 -255z m229 104 c23 -25
35 -93 25 -146 -9 -55 -39 -83 -86 -83 l-38 0 0 125 0 125 40 0 c27 0 45 -6
59 -21z"/>
<path d="M3017 1613 c-3 -4 -32 -105 -66 -223 -33 -118 -65 -230 -70 -248
l-10 -33 67 3 c66 3 67 4 72 33 5 30 5 30 75 30 70 0 70 0 75 -30 5 -29 6 -30
73 -33 37 -2 67 -2 67 0 0 2 -33 116 -73 253 l-72 250 -67 3 c-36 2 -68 -1
-71 -5z m91 -245 c11 -42 17 -79 14 -82 -7 -8 -67 -8 -74 -1 -3 3 4 42 15 86
11 44 21 78 22 77 2 -2 12 -38 23 -80z"/>
<path d="M3340 1365 l0 -255 65 0 65 0 0 90 0 90 38 0 c63 0 76 -17 80 -104
l4 -76 70 0 c61 0 69 2 64 18 -2 9 -8 49 -12 87 -7 79 -26 125 -51 125 -13 0
-10 7 12 30 37 39 48 135 20 186 -27 51 -73 64 -225 64 l-130 0 0 -255z m231
125 c12 -7 19 -21 19 -40 0 -36 -23 -50 -79 -50 l-41 0 0 50 0 50 41 0 c22 0
49 -5 60 -10z"/>
<path d="M3949 1453 c-1 -196 -5 -218 -39 -218 -22 0 -26 6 -34 48 l-9 47 -54
0 -53 0 0 -55 c0 -65 17 -110 54 -145 36 -33 134 -40 186 -13 67 35 75 62 78
296 l3 207 -65 0 -66 0 -1 -167z"/>
</g>
</svg>
